<svg id="Shapes" xmlns="http://www.w3.org/2000/svg" viewBox="0 0 1000 1000"><defs><style>.cls-1{fill:#7C83FD;}</style></defs><g id="Shape_105" data-name="Shape 105"><path class="cls-1" d="M489,260.71c.94,0,1.89,0,2.84.07a2.19,2.19,0,0,0,1.07,1c4.64,0,9.26.9,13.89.21,4.91.06,9.81-.35,14.72-.4.84,1.39,2.27,2.62,2,4.44.28.33.56.67.85,1a5.86,5.86,0,0,0,1,2c1.44,2.23,2.87,4.47,4.26,6.73.05.23.16.7.21.94l.91.95a6.21,6.21,0,0,0,1,2,12.46,12.46,0,0,0,.85,1.07l.36.77c1.13,1.11,1.19,2.94,2.67,3.75.54,1.56,1.17,3.29,2.62,4.22,2.59,4.46,5.5,8.73,7.9,13.29a6,6,0,0,0,.73.78c2.61,3.84,4.78,8,7.6,11.69.07.22.2.67.26.89a22.44,22.44,0,0,1,2.12,3.56,23.86,23.86,0,0,1,2,3.66l.8,1c.66,1.52,2,2.55,2.86,4,6.1,9.69,12.24,19.34,18.21,29.11a94.09,94.09,0,0,1,6.17,9.7,5.47,5.47,0,0,1,.53,1.78c2.39,1.59,3.42,4.48,4.9,6.82,2.62,4.08,4.86,8.42,7.73,12.33a16,16,0,0,1,2.52,4.3,20.76,20.76,0,0,1,2.6,4.2c2.15,1.82,2.77,4.71,4.59,6.75.07.23.19.68.26.9a72.73,72.73,0,0,1,4.95,8.28,5.53,5.53,0,0,0,.77.76c5.07,6.39,8.21,14,13.17,20.48,1,2.08,2.56,3.9,3.38,6.11,1.75,1.5,2.41,3.86,3.76,5.7a30.61,30.61,0,0,1,3.75,6.08c1.65,1.84,2.53,4.24,4,6.2,2.41,3,4.12,6.42,6.31,9.57q4.54,8,9.69,15.66c.05.45.09.92.14,1.39l-1.18,0c-.88-1.56-2.24-2.89-2.48-4.73-3.57-3.94-5.77-8.83-8.76-13.17-2.18-3.07-3.88-6.44-5.93-9.58-3.46-5.51-7.13-10.89-10.36-16.54-1.94-2.43-3.18-5.31-5.06-7.79-4.32-6.16-8-12.74-11.87-19.17-.88-1.37-2.31-2.32-2.95-3.85-2.07-4.82-5.53-8.84-8.39-13.18-3.08-5.87-7.24-11.09-10.28-17-.54-1.81-2.31-2.79-3.17-4.4-1.81-1.94-1.77-5.06-4-6.64a29.49,29.49,0,0,0-3.1-4.84c-1.66-2-2.46-4.51-4.11-6.48q-.09-.69-.15-1.38l-1-.53c-3.25-5.51-7.09-10.64-10.38-16.12-1.62-2.89-4.05-5.29-5.21-8.43a60.86,60.86,0,0,0-6.21-9.26c-.71-2.47-2.78-4.18-3.78-6.5a59.77,59.77,0,0,1-3.68-5.76c-3.44-4.65-5.78-10-9.13-14.69l-.24-.92c-.28-.35-.55-.71-.81-1.07-.43-.32-.85-.65-1.25-1-.24-2.48-2.32-4.22-3.7-6.14-.92-2.68-3.67-4.45-4.08-7.34a29.23,29.23,0,0,1-2.34-3.32c-1.12-.77-1-2.4-2.28-3-.73-1.22-1.28-2.52-2-3.71a13.13,13.13,0,0,0-2.15.49,12.68,12.68,0,0,1-2.74,3.73c-2.26,2.75-3.41,6.28-5.89,8.88-2.23,3.87-4.8,7.55-7.28,11.27a2.28,2.28,0,0,1-1.2,1.54c-1.94,2.44-2.72,5.62-5.13,7.72-1.8,2.83-3.38,5.83-5.71,8.3-2.45,4-5.16,7.77-7.58,11.76-1,2-3.14,2.93-4.41,4.69-.57,1.57-.6,3.38-1.81,4.65s-2,3.05-3.11,4.46c-.08.21-.25.62-.34.82a47.6,47.6,0,0,1-4.24,6c-1.61,3-3.78,5.64-5.5,8.56-1.55,2.2-2.73,4.77-4.75,6.6a37.06,37.06,0,0,1-4.24,6.36c-1,2.68-2.88,4.92-4.59,7.17-.26,2-1.79,3.45-3,4.92a36.06,36.06,0,0,1-2.65,4.58c-.9.69-1.18,1.83-1.89,2.67-2,2.7-3.35,5.87-5.85,8.16-3.41,6.05-7.6,11.61-11.43,17.38a51.55,51.55,0,0,1-4.64,7.13c-1.29,1-1.54,2.67-2.63,3.81-1,1.74-2.69,3-3.53,4.82-1.35,2.58-3.6,4.61-4.83,7.27-1.77,4.28-5.15,7.6-7.34,11.65-1.42,2.57-3.41,4.81-4.7,7.45-.51.61-1,1.24-1.54,1.82a26.46,26.46,0,0,1-4.67,6.72l-.28.87c-1.92,2-3,4.62-4.45,6.93-1.71,2.7-3.5,5.36-5.14,8.11a5.18,5.18,0,0,1-1.47,1.55c-.43,1.84-1.77,3.26-2.81,4.78-1.33,1.72-2.35,3.67-3.69,5.39-1.85,3.71-4.51,6.95-6.52,10.58-1.3,2.3-3.55,4-4.53,6.48-3.2,5.3-6.8,10.33-10.3,15.44a62.24,62.24,0,0,1-5.72,8.68c-1.36,2.88-3.45,5.36-5.33,7.93a6.9,6.9,0,0,1-1.1,2c-1,1.29-1.61,2.87-2.76,4.06-.06.22-.19.67-.26.9-1.27,1.53-2.08,3.4-3.5,4.82l-.31.84c-1.49,1.54-1.8,3.83-3.4,5.32-3.61,4.37-6.09,9.51-9.36,14.12-3.54,5.85-8.05,11.05-11.44,17a38.11,38.11,0,0,1-3.07,4.51c-2.39,3.92-4.88,7.77-7.3,11.67-1,1.74-2.45,3.17-3.36,5s-2.24,3.33-3.26,5.07c-2.39,4.65-5.95,8.54-8.57,13.05-1.21,2.14-2.91,3.93-4.26,6-1.57,2.24-2.75,4.75-4.53,6.84-1.6,1.77-2.49,4-4,5.85l-.32.83c-4.41,6.73-8.69,13.52-13,20.3a9.67,9.67,0,0,1-1.18,2.25c-.07.22-.19.68-.25.91q-.45.5-.87,1c-1.48,1.17-2.05,3-3,4.63-.51.72-.05,1.58.12,2.34,5.28.85,10.65.08,16,.8,3.07.28,6.12-.64,9.2-.08,5.18.69,10.36-.47,15.54,0,6.64.75,13.26-.38,19.9-.11,11.37.07,22.73.09,34.1.15,4.24.15,8.48-.69,12.7-.18,4,.64,7.93-.25,11.91-.12,5.44.15,10.91-.24,16.33.38,11.47.23,23,.11,34.43.21v.75c-2.71,0-5.43-.1-8.13.16-7.63.44-15.27-.06-22.9.16a53.59,53.59,0,0,1-10.82.1c-7.5-.46-15-.16-22.55-.28-4.92.06-9.87-.3-14.77.19a178.06,178.06,0,0,0-23.1,0c-14.14-.19-28.3.25-42.42-.55-6.2.15-12.43-.42-18.61.24-3.78.14-7.55,0-11.33,0-.12-.57-.25-1.14-.34-1.71a15.05,15.05,0,0,0,1.4-1c.07-.23.2-.68.26-.91,1.48-2,3.28-3.75,4.21-6.06.28-.2.55-.41.84-.61.54-2.2,2.15-3.94,3.23-5.89a28.4,28.4,0,0,1,3.2-4.36,10,10,0,0,1,1.28-2.55q3.75-5.58,7.23-11.33c1-2.07,2.68-3.68,3.84-5.64,5.81-8.86,11.57-17.74,17.39-26.59a5.38,5.38,0,0,1,1.09-1.19,100.51,100.51,0,0,1,5.5-8.52c3.49-5.9,7.62-11.39,11.2-17.24a111.92,111.92,0,0,1,10-14.6c1-2.71,2.81-5,4.4-7.39,1.84-2.39,2.9-5.3,5-7.53,2-2.4,3.25-5.28,5.1-7.76a5.57,5.57,0,0,1,2.34-3c.14-1.66,1.33-2.94,2.19-4.28,3-4.06,5.1-8.87,8.91-12.32.06-.45.12-.89.19-1.33,1.55-1.89,2.72-4,4.29-5.91,1.34-2.84,3.35-5.28,4.93-8a2.92,2.92,0,0,0,1.14-1.56c1.21-2.28,3.1-4.12,4.09-6.52,2.53-4.22,5.72-8,8.15-12.32a22.18,22.18,0,0,1,4.22-5.59c.13-1.47,1.16-2.59,1.94-3.78,1.2-1.61,1.92-3.54,3.3-5,2.37-4.25,5.39-8.09,7.83-12.29,2-2.81,3.73-5.79,5.94-8.43a149.11,149.11,0,0,1,8.77-13.22,16.47,16.47,0,0,1,2.76-4.48c2.21-2.57,3-6.17,5.57-8.45a36.05,36.05,0,0,1,3.82-5.64,100.31,100.31,0,0,1,6.91-10.52c1-2.9,3.29-5.11,4.81-7.74,1.54-1.89,2.12-4.62,4.36-5.88a10.84,10.84,0,0,1,2.23-3.81c1.43-1.08,1.74-3,2.9-4.33s2.17-2.86,3.21-4.33c.77-1.88,2.17-3.41,3.23-5.12.69-1,1.12-2.13,2.09-2.84a1.84,1.84,0,0,1,1.56-1.87c.3-1.7,1.54-3,2.4-4.42a52.26,52.26,0,0,1,3.31-5,16.11,16.11,0,0,1,2.08-3.62c2.58-4.2,5.61-8.12,8.13-12.36,1.86-3.16,4.23-6,6-9.17,1.49-1.35,2.42-3.12,3.67-4.66l.24-1.3c2.13-1.9,2.89-4.87,5-6.72.79-2.27,2.75-3.81,4.17-5.68,1.22-2.07,2.37-4.19,3.65-6.23.82-1.21,2.06-2.15,2.47-3.61,1.63-2.3,3.07-4.71,4.72-7,1.28-1.71,2-3.74,3.26-5.46,1.25-.69,1.64-2.17,2.41-3.29.72-1.28,1.87-2.27,2.44-3.64,1-1.95,2.56-3.5,3.78-5.3,1.91-2.54,3.43-5.38,5.54-7.75.24-.52.48-1,.7-1.57a70.37,70.37,0,0,1,5.42-7.83c.08-.2.23-.62.31-.83a7.47,7.47,0,0,0,1.17-2.26c1.36-1.33,3-2.9,2.47-5a3.61,3.61,0,0,0-1.69-.7c-4.06-.44-8.14-.06-12.18.08l-.35-.53c-4.83-.72-9.71,0-14.56-.17-1.3,1.5-2.3,3.23-3.63,4.7-.08.2-.24.62-.31.83-.85,1.05-1.58,2.2-2.45,3.23-1.55,1.71-1.86,4.32-3.72,5.77-1.55,2.89-3.82,5.28-5.63,8-.88,1.18-1.21,2.73-2.38,3.69-.07.22-.2.64-.27.85-2.06.72-1.32,3.56-3.21,4.41-.05.23-.13.7-.17.94-.44.32-.88.64-1.33.94-.2.54-.43,1.06-.66,1.58a2.35,2.35,0,0,0-1.19,1.53,37.31,37.31,0,0,1-2.23,3.43c-2.37,3.2-3.85,7.06-7,9.67a5.67,5.67,0,0,1-1.53,2.66l-.32.83a109.54,109.54,0,0,1-6.28,9.24,123,123,0,0,1-8.61,13.4l-.25.88a13.43,13.43,0,0,0-2.09,1.67c-2.38,5.5-6.39,10.09-9.39,15.25a2.79,2.79,0,0,0-1.08,1.25,26.56,26.56,0,0,1-4.73,6.6c-.44,1.54-1.55,2.74-2.36,4.09a78.61,78.61,0,0,1-4.81,7.7c-1.7,3-3.87,5.76-5.76,8.66a5,5,0,0,0-.74.78A66.44,66.44,0,0,1,402.6,395a22.61,22.61,0,0,1-4.16,6.09,12.58,12.58,0,0,1-1.52,2.64c-1.49,1.26-1.74,3.45-3.19,4.8-2.31,2.35-3.41,5.59-5.68,8-.06.23-.17.68-.22.91-.48.28-.93.59-1.38.91,0,.23-.14.69-.19.92a5.88,5.88,0,0,0-1.19,2.25A3.61,3.61,0,0,0,384,423a25.47,25.47,0,0,1-2.17,3.11c-.78,1.1-1.26,2.47-2.39,3.29-1.72,3.13-3.87,6-5.7,9.08a35.11,35.11,0,0,1-4.2,6.42,19.17,19.17,0,0,1-1.53,2.63,3.5,3.5,0,0,0-.92,1c-1.6,2.91-3.63,5.55-5.17,8.49a7.71,7.71,0,0,1-2.41,2.48c-.22,2.3-2,4-3.31,5.79a6.58,6.58,0,0,1-1.91,2.66c-1.75,3.44-4.21,6.45-6.16,9.77a36,36,0,0,1-3,4.13c-.54,1.6-1.72,2.85-2.57,4.29-2.71,4.64-5.83,9-8.85,13.48-1.17,2.71-3.35,4.84-4.7,7.46-3.25,6.07-7.73,11.34-11.17,17.28a19.51,19.51,0,0,0-2.08,3.2l-.28.89c-1.57,2-2.77,4.24-4.6,6a9,9,0,0,1-2.41,3.29c-.07.44-.14.87-.2,1.32-1.66,2.37-3.23,4.81-5.05,7.07l-.31.84a15.76,15.76,0,0,0-1.6,2.19,3.18,3.18,0,0,0-1,1.23,24.72,24.72,0,0,1-4.77,7.36c-.05.24-.15.71-.19,1-.54.72-1,1.5-1.57,2.21-.25.37-.51.74-.79,1.09a3.85,3.85,0,0,1-2,3,11,11,0,0,1-1.55,3c-1.45,1.73-2.78,3.53-4.21,5.27l-.16,1-.54.54c-.49,1.75-2.12,2.86-2.67,4.6-1.31,1.28-1.65,3.27-3,4.54l-.32.82a14.72,14.72,0,0,0-1.28,1c-.48,2.22-2.33,3.75-3.49,5.64a44.93,44.93,0,0,1-2.5,3.93,15.1,15.1,0,0,0-2,2.18c-.7,2.71-2.46,5.09-4.15,7.26l-.37.76c-1.16.71-1.08,2.37-2.32,3l-.36.76c-1.51,1.72-2.17,4-3.82,5.66-.09.19-.28.57-.37.77-1.57,1.56-2.43,3.64-3.65,5.45-1,1.73-2.38,3.27-3.26,5.11-.56.71-.95,1.54-1.46,2.29-.24.5-.48,1-.73,1.52a2.48,2.48,0,0,0-1.18,1.54c-1.33,2.19-2.7,4.36-4,6.54a4.26,4.26,0,0,1-1.28,1.36,22.15,22.15,0,0,1-4.39,6.22c-.63.9-.88,2.06-1.73,2.83l-.32.83a14.86,14.86,0,0,0-1.58,2.19,3.51,3.51,0,0,0-1.48,2.74c-.27.33-.54.68-.81,1a6.47,6.47,0,0,0-1.73,2.47c-.81,1.66-1.92,3.15-2.78,4.8-.31.17-.62.35-.92.55-.11,1.84-1.46,3.28-2.64,4.6-.08.2-.23.62-.31.83-2,2.72-3.5,5.78-5.68,8.33a6.55,6.55,0,0,1-1.19,1.86l-.32.82a8.22,8.22,0,0,0-1.62,2.57,17.11,17.11,0,0,0-1.48,2.28,7.64,7.64,0,0,0-2.3,3.41,18.61,18.61,0,0,0-2.93,4.27c-.86,1.52-2.37,2.72-2.71,4.5A18.93,18.93,0,0,1,204,698c-.77,1.45.27,3.44,2.16,2.49,7.58-.2,15.13.66,22.71.47,10-.16,20,.47,29.89-.22,2,.16,4.06.54,6.1.67,9.2-.62,18.44-.09,27.65-.22,3.68-.21,7.3.53,11,.45,6.19,0,12.4.24,18.56-.31,21.47,0,42.94.18,64.42.24a154.46,154.46,0,0,1,21.62,0c9.64.34,19.3-.15,28.93.37,11.91.44,23.84.27,35.76.26,3.42-.4,6.84.18,10.27.13q18.93,0,37.89.15c2.41.13,4.77-.41,7.18-.36l53,.21c2.27-.11,4.49.48,6.76.34,8.16-.68,16.34.08,24.5-.4,8.61-.75,17.2.84,25.81.17a49.19,49.19,0,0,1,10.15,0c7,.34,14.15.37,21.21.1,14.95-.58,29.95.45,44.89-.41,5.67,0,11.35.12,17,.06a10.37,10.37,0,0,0,2.3-.82,3,3,0,0,0-1.34-3.12c-1.08-.6-1.32-2-1.49-3.06-1.6-1.38-2.37-3.42-3.61-5.08a31.44,31.44,0,0,1-2-3.29c-.65-1.47-1.69-2.69-2.33-4.15-1.3-.74-1.59-2.23-2.19-3.47a9.48,9.48,0,0,0-2.9-2c-1.13.23-2.23.83-3.42.68-16.4,0-32.81-.15-49.22-.15-2.78,0-5.55.45-8.32.35-19-.1-37.89-.15-56.84-.25-4.94-.07-9.89.77-14.8,0-8.21-.32-16.43.2-24.63-.48-20,.53-40-.12-60,.26-8.12-.54-16.26.11-24.37-.5a9.84,9.84,0,0,0-1.33,0c-9.8.6-19.65-.37-29.44.48-5.88.16-11.72-.5-17.58-.53a2.25,2.25,0,0,1,2.82-1c28.4.07,56.8.28,85.2.29,7.11-.71,14.27-.13,21.39,0,4.35-.35,8.73-.14,13.09-.16,21.46,0,42.92.23,64.38.21,9.84-.69,19.72-.21,29.56.17,14.49-.1,29,.39,43.47-.06a11.82,11.82,0,0,1,1.33,0c9.15.83,18.31-.31,27.46-.5l.47-.42c.14-1.44-.91-2.6-1.26-3.93a29.47,29.47,0,0,0-2.33-3c-.26-.52-.5-1-.71-1.55a9.9,9.9,0,0,1-1-.84c-.94-.81-.86-2.33-2-2.91-.07-.45-.13-.89-.17-1.32l-.93-.56a5.32,5.32,0,0,0-1.57-2.62c0-.47-.09-.93-.13-1.39l-.94-.54a9.65,9.65,0,0,0-1.42-2.74c-1.5-.87-2-2.68-2.72-4.14-.69-.71-1.12-1.62-1.82-2.31a8.62,8.62,0,0,0-1.91-3l-.39-.74c-1.06-1.29-1.17-3.23-2.6-4.2a5.41,5.41,0,0,0-2.35-2.93,4.1,4.1,0,0,0-1-2,23.32,23.32,0,0,1-2.38-4.06c-.93-2.11-2.84-3.64-3.63-5.82a3.6,3.6,0,0,1-1.84-3.11c-.4-.48-.78-1-1.19-1.42-.86-1.61-1.58-3.43-3-4.56l-.34-.77a16.48,16.48,0,0,1-2.26-3.42,7.73,7.73,0,0,1-2.29-3.41,29.56,29.56,0,0,1-3.42-5.64c-.29-.71-1-1.06-1.58-1.47-.05-.46-.1-.91-.13-1.36-.32-.32-.62-.64-.92-1-1.15-2.29-3.19-4.08-4.14-6.51-1-1.19-1.08-3.06-2.61-3.81-1.19-2.94-3.94-5-4.79-8.1-.41-.35-.82-.68-1.25-1-.52-1.19-.71-2.66-1.83-3.45a7.89,7.89,0,0,0-2.64-4.19c-.84-1.41-1.21-3.29-2.72-4.12-.06-.45-.12-.89-.16-1.32-.43-.34-.85-.67-1.28-1-.9-1.51-1.8-3-2.62-4.57l-.36-.78a16.58,16.58,0,0,1-3.73-6.13l-1-.51c0-.5,0-1,0-1.5-.47-.3-.93-.6-1.41-.87,0-.25-.08-.75-.11-1l-1-.54c-1.69-2.75-2.54-6-4.94-8.31-.05-.47-.08-.94-.1-1.41-.46-.32-.9-.63-1.36-.92a4.17,4.17,0,0,0-1.47-2.33l-.31-.81c-1-1.55-1.36-3.56-3-4.51-.84-2-2.08-3.79-3-5.76l-1-.52c0-.5,0-1,0-1.49-.47-.31-.92-.62-1.39-.89-.08-.42-.16-.84-.23-1.25a12.31,12.31,0,0,1-3.31-4.28c-1-2.27-2.77-4.09-3.87-6.32a11.9,11.9,0,0,0-3.9-5.61c-.09-.42-.16-.84-.24-1.25-1.11-1-1.57-2.47-2.45-3.62-1-1.66-2.33-3-3.21-4.75a8.23,8.23,0,0,0-2-2.6c-.1-.4-.2-.79-.29-1.18-2.31-1.29-1.66-4.73-3.87-6l-.2-.91c-.43-.46-.84-.93-1.28-1.37l-.33-.79c-2.61-2.4-2.91-6.55-5.7-8.72l-.33-.76c-1.1-1.59-1.3-3.79-3-4.94s-2-3.7-3.35-5.35c-.81-1-1.21-2.27-2-3.24-1.14-1.39-1.56-3.19-2.53-4.67a29,29,0,0,0-2.57-3.46c-.39-2.08-2.06-3.5-3.13-5.21-1.54-2.6-3.81-4.73-4.92-7.57-.59-1.14-.91-2.62-2.22-3.12-.26-.64-.49-1.29-.69-1.94-1.12-1.75-1.8-3.91-3.6-5.1a7.32,7.32,0,0,1-2-3.7,13,13,0,0,1-1.5-2.26c-.46-.3-.89-.62-1.33-.94,0-.49,0-1,0-1.47l-1-.52a32.54,32.54,0,0,0-2.23-3.84c-.08-.44-.14-.88-.19-1.32l-.95-.52c-.15-2.06-1.78-3.48-3.06-4.92,0-.47-.09-.94-.12-1.4l-1-.53c-.33-.66-.68-1.31-1.06-1.94a3.25,3.25,0,0,0-1.62-1.84L545,402c-1.27-1.53-2.09-3.39-3.45-4.86a27.13,27.13,0,0,0-3.81-6.43c-.08-.42-.17-.83-.25-1.25a6.16,6.16,0,0,1-1.6-1.81,11.58,11.58,0,0,0-.67-1.2c-.67-2.26-2.18-4.14-3.37-6.13-2-2.61-3.25-5.71-5.33-8.25a2.54,2.54,0,0,0-1.17-1.55c-.51-1.08-.79-2.34-1.79-3.09-.26-.38-.52-.74-.81-1.09-.09-.19-.28-.57-.38-.76-.94-1.28-1.4-2.83-2.21-4.18-.78-1.85-3.47-2.61-2.93-5.08-.42-.33-.84-.66-1.27-1-2.11-3.11-3.67-6.58-6-9.52-.09-.19-.29-.57-.38-.76a9.25,9.25,0,0,1-1.46-2.69c-1-1-2-2.32-3.55-2.1a56.46,56.46,0,0,0-5.39,7.22c-4,6.55-9,12.44-12.77,19.09-5.43,7.89-10.35,16.11-15.83,24-2.86,4.67-6.22,9-9.05,13.7a249.5,249.5,0,0,0-4.86,6.88c-2.48,4.06-5.44,7.79-7.82,11.92s-5.52,7.73-7.76,11.94c-.46.3-.89.61-1.33.94,0,.24-.13.73-.17,1-2.86,4.15-5.48,8.47-8.05,12.81a69.69,69.69,0,0,0-4.05,5.78c-2.1,3.76-5.06,6.94-7.13,10.71-2.3,2.74-3.75,6.05-5.8,9-1.27,2.13-3,4-4,6.27-3.35,4.79-6.1,10-9.56,14.68-1.72,2.49-3.1,5.19-4.9,7.62-2.39,2.79-3.82,6.23-6,9.2-.87,1.15-1.56,2.44-2.46,3.58a9.17,9.17,0,0,1-1.39,2.45c-2.26,2.83-3.87,6.12-6.24,8.87-.76,3-3.51,4.72-4.72,7.44a58.69,58.69,0,0,1-4.92,7.6c-1.85,2.5-3.2,5.33-5,7.88-1.45,2.15-2.71,4.59-4.89,6.1-.05.24-.15.72-.19.95-1.18,1.13-1.52,2.77-2.31,4.15-2.16,3.14-4.31,6.26-6.59,9.32-1.64,3.09-3.88,5.81-5.47,8.94-2.06,3.77-5.05,6.91-7.2,10.61-1.09,1.71-1.91,3.59-3.16,5.2-3.26,4.08-5.56,8.8-8.52,13.09-1.23,1.24-1.86,2.92-2.85,4.34-1.65,2.76-3.81,5.21-5.13,8.15-4,5-7.09,10.73-11.08,15.8-2.05,4.85-5.89,8.68-8.29,13.35-1,2.26-2.73,4.06-4.21,6a51.25,51.25,0,0,1-3.08,5.26c-1.14.62-1.31,2-1.92,3-1.08,1.91-1.85,4.07-3.54,5.55,0,.26-.08.79-.11,1-.69.3-1.37.85-2.17.71a1,1,0,0,1,0-1.75c1.86-1.89,2.25-5,4.77-6.22l.15-1.37c.3-.33.6-.66.91-1,1-.88,1.3-2.22,2.07-3.25.69-1.42,1.94-2.5,2.46-4,2.77-3.75,4.82-8,7.53-11.76,1.69-2.5,3.36-5,5.06-7.47,2.38-2.9,4-6.31,6.15-9.38,3.57-5.07,7.05-10.2,10.33-15.45,1.45-2.34,3.32-4.43,4.46-6.94,6.52-9.56,12.68-19.35,19.24-28.87,2-3.49,4.32-6.79,6.6-10.1,5.64-8.87,11.5-17.61,17.05-26.55,1.08-2,2.6-3.73,3.83-5.64,2-3.06,3.88-6.2,6-9.19,4.46-5.79,7.88-12.29,12.05-18.28l.91-.57a4.87,4.87,0,0,1,.37-1.57c2.38-4.12,5.46-7.79,7.76-11.95,5.56-8.28,10.81-16.76,16.15-25.18.95-1.43,2.3-2.59,3.06-4.14,2.78-5.16,6.51-9.73,9.5-14.76,2.54-4,5.18-7.89,8-11.65.59-1.06,1-2.21,1.71-3.24.82-1.56,2.4-2.63,2.85-4.39,1.66-2.47,3.39-4.91,5.1-7.35,1-1.35,1.43-3,2.53-4.27.62-1.78,1.89-3.19,2.87-4.75a47.85,47.85,0,0,1,5.1-6.65c2-3.93,5-7.21,7.2-11,1.41-2.35,3.24-4.42,4.56-6.82s3.27-4.41,4.52-6.86c5.47-8.53,11.12-16.94,16.64-25.44,2.24-3.53,5.12-6.64,7.08-10.35l1.35-.92c0-.27,0-.81.06-1.08l.7-.44c0-.49,0-1,0-1.48.35-.15.7-.31,1.06-.45,0-.25.11-.74.14-1,2.13-1,2.38-3.5,3.35-5.37l1.12,0,.19-.94c.92-.81,1.19-2.06,2-3,.05-.24.15-.7.21-.94l1-.47c.93-2.34,2.61-4.15,4.18-6.06.06-.44.12-.88.2-1.32,2-2.37,3.28-5.25,5.24-7.64h1.48c0,.63.07,1.9.09,2.53a10.42,10.42,0,0,1,1.72,1.31,4.09,4.09,0,0,0,2.17,3.54c.29.7.6,1.41.93,2.1.95,2.32,3.6,3.51,4.13,6.08-.07,1,.72,1.55,1.31,2.11.39.48.79,1,1.19,1.42.18,1.65,1.3,2.95,2.1,4.35s2.35,1.8,2.79,3.28c1.13,2.07,1.82,4.63,3.8,6.08.21.54.41,1.1.58,1.67.4.34.81.68,1.23,1-.12,1.27.73,2.2,1.46,3.07a35.86,35.86,0,0,0,5.8,8.24c0,.47.07.94.1,1.41.32.18.65.34,1,.51.39,1.37.72,2.88,1.82,3.87.07.22.19.66.25.88.86,1.18,2.21,2,2.61,3.47,1,2.37,2.89,4.19,4.15,6.4.45.91.71,2,1.62,2.57a3.88,3.88,0,0,0,1.56,2.25c.07.2.24.58.32.78,1.29,1,1.78,2.67,2.28,4.18a10.66,10.66,0,0,0,2.68,3c.07,1.53,1.4,2.5,1.81,3.92l.91.56c.06.23.17.7.22.93a16.53,16.53,0,0,0,1.58,2.22c0,.44.11.88.17,1.33l1,.51c.18.7.38,1.39.55,2.1l1,.9c0,.25.11.74.14,1a20.51,20.51,0,0,1,3.85,5.22c1.51.84,1.15,2.85,1.85,4.22a32.72,32.72,0,0,0,2.29,3,17.83,17.83,0,0,0,1.13,1.5c.57,1.18,1.24,2.29,1.87,3.43,2.68,2.08,2.89,6.11,5.35,8.32.05.22.17.66.23.89l.91.94a4.08,4.08,0,0,0,1.81,2.76A50.62,50.62,0,0,0,599.8,439c.83,1.06,1,2.48,1.73,3.58.52.72,1.11,1.38,1.68,2.07.81,2.16,2.42,3.9,3.66,5.82,2.11,3.43,4.53,6.66,6.48,10.19l.33,1.15a3.27,3.27,0,0,1,1.2,1.5c.93,1.08,1.74,2.23,2.65,3.35.18,1.95,1.81,3.25,2.7,4.9s2.47,3,3.16,4.81c1.36,2.47,2.56,5.11,4.61,7.1s2.26,5.3,4.58,7.16c.1.39.2.79.32,1.18a14.88,14.88,0,0,1,1.54,2.22,2.57,2.57,0,0,0,1.14,1.56c.63.86,1.24,1.76,1.92,2.59.07.22.21.66.27.88.44.42.84.9,1.25,1.37.08,1.49,1.05,2.67,1.79,3.9a3.3,3.3,0,0,1,1.16,1.54c1.06,1.46,1.58,3.34,3,4.54a10,10,0,0,1,1.18,1.48,13.74,13.74,0,0,1,2.23,4.21c2.13,1.62,2.11,4.73,4.16,6.42,1.41,1.1,1.39,3.26,3,4.21.37.63.73,1.26,1.13,1.88a10.35,10.35,0,0,0,.68,1.21,13.19,13.19,0,0,0,.8,1.09c.87,2.91,3.28,5.06,5,7.52.07.41.16.82.25,1.24a16.43,16.43,0,0,1,2.74,3.75c.74,1.14,1.12,2.54,2.24,3.43.07.41.15.82.23,1.24,1.55.59,1.39,2.59,2.8,3.3.82,2,1.48,4.35,3.35,5.71.62.87,1.23,1.77,1.88,2.63.75,2.23,2.25,4.11,3.29,6.2.68,1.14,1.13,2.59,2.34,3.34a12.12,12.12,0,0,0,1.85,3.43,15,15,0,0,0,1.53,2.26l.7,1.2.89.6c.44,2,1.83,3.69,2.88,5.45,2.13,1.44,2.49,4.23,4.27,6,0,.44.11.89.17,1.35a50.59,50.59,0,0,1,4.34,5.12c.09.41.18.81.28,1.23a70.18,70.18,0,0,1,6.08,9.8c.08.22.22.64.29.86a11.72,11.72,0,0,1,1.64,1.36,1.92,1.92,0,0,0,1.11,1.62,18.92,18.92,0,0,0,2.46,4.69c1.39,1.36,2,3.23,3.16,4.77l.32.82a7.42,7.42,0,0,1,2.31,3.39,13,13,0,0,1,.75,1.13c2.22,1.87,2.55,5.13,4.45,7.29,1,1,1.57,2.44,2.7,3.36a63.79,63.79,0,0,0,4.14,6.42c-.06,1.75,1.25,3,2.09,4.36a27.28,27.28,0,0,0,2.4,3.28c.09.19.29.56.38.74a5.08,5.08,0,0,1,1,2.43c.55.45,1.13.87,1.72,1.27.06.24.15.7.2.93.46.42.88.88,1.33,1.33,0,.46.06.93.11,1.4a16.07,16.07,0,0,0,1.64,1.77c.36.63.68,1.3,1.1,1.91.11.18.32.55.42.74,1.29,2.07,1.81,4.86,4.21,6,.25.64.46,1.29.67,2,1.35,1.67,2.95,3.26,3.82,5.28.74.94,1,2.19,1.83,3.06.11.38.23.76.36,1.15,1.44,1.42,1.75,3.7,3.41,4.92a32.78,32.78,0,0,0,1.54,3.36c.55,1.17,2.35,1.47,1.74,3.22l2.49,2c0,.42.11.86.18,1.29.89,1.16,1.1,2.78,2.28,3.79.81,1.85,2.21,3.36,3.3,5,1.11,1.48,1.48,3.42,2.81,4.76,1.23,1.16,1.39,3,2.65,4.16.08.4.16.81.26,1.23a3.18,3.18,0,0,1,1.1,1.2c1.35,2.75,3.65,4.93,4.58,7.91,1.32,1.83,2.9,3.47,4.06,5.43,1.45.94,3,.08,4-1.15a4,4,0,0,1,.72-1.25l.32-.79c1.93-2.59,3-5.68,5-8.22s3-5.77,5-8.39c.8-1.82-.56-3.27-1.29-4.74-1.17-2.32-2.83-4.35-3.89-6.71s-3.12-4-4.3-6.31c-4.42-8.28-9.93-15.9-14.58-24a37.8,37.8,0,0,1-3.32-5.38,3.09,3.09,0,0,0-.89-1,32.46,32.46,0,0,0-3.25-5.44c-3.33-4.69-5.75-10-9.4-14.44-1.38-2-2.36-4.19-3.61-6.25-3.45-5-6.74-10.23-9.8-15.52-.65-2.09-2.44-3.41-3.45-5.28-2.12-3.42-4.18-6.88-6.44-10.21a25.09,25.09,0,0,1-2.41-4.44c-2.37-3.14-4.25-6.59-6.33-9.91-2.22-3.06-4.52-6.18-5.71-9.8-1.47-1-2-2.78-3.06-4.11a3.78,3.78,0,0,1-.67-2c-1.77-1.42-2.86-3.49-4.1-5.35q-5.76-9.5-11.87-18.76c-1.4-2.48-2.89-4.91-4.52-7.24a10.66,10.66,0,0,1-1.54-4.18c3.45,2.64,5.15,6.81,7.46,10.38,2.34,3.8,4.93,7.46,7.28,11.27,3.72,5.42,6.84,11.24,10.62,16.62,2.6,5.16,6,9.87,9.15,14.7,1.13,1.71,1.88,3.63,2.94,5.37.09.21.25.62.33.82,2.46,2.37,3.79,5.64,5.45,8.58.88,1.36,1.86,2.7,2.62,4.16,1.1,2.48,3.53,4.23,4,7,1.1.69,1.61,1.92,2.34,3,4.31,6.9,8.82,13.68,13,20.65,2.68,4.13,5.5,8.17,8,12.42s4.88,8.2,7.45,12.23c1.69,3.26,4,6.16,5.81,9.34,3.17,5.37,6.4,10.69,9.78,15.93,2.09,4.08,5.17,7.54,7.39,11.55a42.48,42.48,0,0,0,3.54,5c-.66,1.1-1.29,2.23-2,3.28a53,53,0,0,1-4.29,7.86,97.65,97.65,0,0,1-5.6,9.17,4.49,4.49,0,0,0-.78.79,18.62,18.62,0,0,1-3.61,7c-16.42-.08-32.84-.12-49.26-.21a56.16,56.16,0,0,0-6.23.17c-7.73.47-15.47-.15-23.19.23-6.3.81-12.6-.72-18.9,0a45.88,45.88,0,0,1-8.12-.09c-2.53.07-5.05.27-7.57.24q-30.31-.15-60.62-.25c-3.42-.14-6.8.45-10.21.35q-48.3-.21-96.61-.37c-6.17.57-12.37.27-18.56.27-4.75-.2-9.52-.68-14.27-.3-5.6.62-11.24-.2-16.83.5-10.9.25-21.82-.31-32.71.12-3.73.29-7.46.15-11.19.16q-20.85-.09-41.68-.16c-2.58.14-5.15-.6-7.73-.25-3.73.3-7.47.16-11.2.17q-38.83-.18-77.66-.32c-1.86-.09-3.69.2-5.54.2-6.53-.55-13.1,0-19.63-.47-5-.38-10-.22-15-.26-3.05-.07-6,.73-9.07.74a17.65,17.65,0,0,1-2.09-3.62c-1.39-1.06-2-2.77-3-4.14a6.17,6.17,0,0,0-2.35-3.35c0-.26-.08-.78-.11-1-.44-.32-.88-.64-1.33-.93a5.85,5.85,0,0,0-1.42-3.11,5.36,5.36,0,0,0-2.31-3c-.39-1.27-.74-2.65-1.91-3.41-.05-.24-.14-.71-.18-1-.58-.31-1.17-.61-1.77-.89,0-.23-.17-.68-.22-.91a12.81,12.81,0,0,1-1.22-2.2c-1-1.15-1.53-2.72-2.66-3.78,0-.44-.1-.89-.14-1.33-.37-.18-.74-.35-1.12-.5a1.47,1.47,0,0,1,1.43-1.94c.38-.49.75-1,1.14-1.46q.1-.68.21-1.32a31,31,0,0,1,3.22-4l.23-.92c1.12-1.66,1.87-3.59,3.48-4.84,1.14-2.4,2.09-5.08,4.23-6.78,1.34-2.27,1.95-5.25,4.21-6.8a41.44,41.44,0,0,1,4.49-7.22,9.12,9.12,0,0,1,1.64-2.55l.21-.93c.77-.87,1.56-1.72,2.38-2.54.43-.94.59-2.06,1.51-2.68.29-.34.59-.67.89-1,0-.25.1-.75.14-1,.34-.3.68-.59,1-.87l.12-1.39a17.86,17.86,0,0,0,1.73-1.27,16.36,16.36,0,0,1,2.54-4.29c.8-1.92,2.59-3.25,3.07-5.33a20.19,20.19,0,0,1,3.19-4c0-.48.07-.95.1-1.41.34-.18.68-.34,1-.49.22-.54.43-1.08.65-1.61a5.13,5.13,0,0,0,1.53-2.28,18.66,18.66,0,0,0,4-5.91c1.24-2.56,3.6-4.41,4.78-7l.51-.58.28-.87c.78-1.12,1.26-2.47,2.32-3.36l.2-.94c.45-.32.89-.64,1.36-.92.08-.21.23-.62.31-.82a21.07,21.07,0,0,0,2.88-5.08c.17-.45.64-.66,1-.94.92-1.25,1.14-3.06,2.66-3.77.07-.21.21-.64.27-.85,1.34-1.5,1.94-3.51,3.59-4.75,0-.25.11-.74.15-1l1-.86.12-1,.57-.53a5.69,5.69,0,0,1,1.89-3.08c0-.24.14-.71.18-1,.34-.17.68-.34,1-.49.06-.23.17-.7.22-.93,1-1.27,1.66-2.82,2.79-4,.07-.21.23-.63.31-.84,2.43-3.4,4.38-7.13,7.1-10.33a86.39,86.39,0,0,1,4.78-7.35c1.4-1.68,2.07-3.87,3.85-5.25,0-.24.13-.73.17-1l.53-.56c.54-1.5,1.8-2.58,2.48-4a16.22,16.22,0,0,1,1.63-2.55l.91-.57c.27-2.47,2.41-4.16,3.69-6.17a16.63,16.63,0,0,1,2.27-3.8,21.44,21.44,0,0,1,3.11-4.47,2.9,2.9,0,0,1,1.1-1.56,14.6,14.6,0,0,1,1.79-3.52l1.06-.46c.05-.24.14-.72.19-1,.75-.78,1.28-1.73,1.95-2.56.91-2.67,3.38-4.42,4.41-7,.85-2.27,2.47-4.11,3.64-6.21a4,4,0,0,1,1.49-1.55c1.8-2.86,3.31-5.92,5.49-8.52a8.38,8.38,0,0,0,1-1.68,7.51,7.51,0,0,0,1.67-2.51,43.32,43.32,0,0,1,4.47-6.11c.09-.42.17-.84.26-1.26.3-.34.57-.7.85-1.06a6.63,6.63,0,0,0,.74-1.15,29.61,29.61,0,0,0,3-4.15,13,13,0,0,1,2.25-3.82c1-1.54,1.63-3.39,3.13-4.49l.2-.91.66-.49c0-.25.08-.76.11-1a19.42,19.42,0,0,1,1.62-1.77,15.84,15.84,0,0,1,2.68-4.16,50.18,50.18,0,0,1,3.46-4.85c1-2.6,2.93-4.72,4.27-7.14.76-1.37,2-2.45,2.54-3.94l.53-.56c.05-.24.14-.73.18-1,.28-.36.56-.72.82-1.08l.87-.61c.15-1.47,1.28-2.45,2.25-3.44a12.92,12.92,0,0,1,2.58-4.24c.8-1.88,2.2-3.4,3.25-5.12.83-1.31,1.59-2.66,2.51-3.9a19.57,19.57,0,0,1,2.67-3.8c1.05-.81,1.32-2.21,2.12-3.21,1-1.95,2.85-3.38,3.62-5.47a3,3,0,0,0,1.09-1.59l.82-1c.84-1.81,1.73-3.79,3.41-5a14.15,14.15,0,0,1,2-3.73c1.46-2,2.61-4.15,4.12-6.09,1.28-1.06,1.42-3,3-3.79-.45-1.46.82-1.91,1.65-2.55.06-.22.2-.65.26-.86,1.32-1.86,2.3-3.95,3.78-5.69,2.28-2.82,3.33-6.38,5.61-9.19,1.74-2.23,2.9-4.84,4.71-7a3.87,3.87,0,0,0,1.86-2.72l.56-.55c0-.24.14-.71.19-.94.45-.3.88-.62,1.31-.95a4.36,4.36,0,0,1,.93-2.16c1.33-1.94,2.55-4,4-5.82.06-.21.19-.64.26-.86a3.92,3.92,0,0,0,1.6-2.23,32.41,32.41,0,0,0,2.09-3.19c1.44-2.45,3.2-4.7,4.57-7.19a4.05,4.05,0,0,1,1.73-2.07l.28-.85c2.29-2.83,4-6.09,6.19-9,2.26-1.92,2.61-5.31,4.9-7.21a4.06,4.06,0,0,1,1.57-2.26c.87-1.4,1.77-2.79,2.59-4.22l.95-.55c.06-.44.13-.88.21-1.31,1.95-2.95,4.09-5.76,6.14-8.64,1.08-1.91,2.34-3.71,3.6-5.5,1-1.42,1.71-3,2.83-4.35a11.78,11.78,0,0,1,1.24-2.19c.05-.24.14-.73.19-1a17,17,0,0,1,1.72-1.32,11.64,11.64,0,0,0,1.44-3.12c2.32-2.81,3.4-6.52,6.21-8.93.07-.21.21-.65.27-.86,1.38-1.35,2.07-3.21,3.3-4.67a14.34,14.34,0,0,0,2-2.92l.91-.57c-.13-1.94,1.42-3.31,2.57-4.66l.32-.82c1-1.22,1.72-2.58,2.59-3.86s2.42-2.27,2.93-3.88a7.27,7.27,0,0,1,1.62-2.58M218.21,723.56c0,.66-.06,1.34-.09,2l1.6-.06c.18-1.07-.35-2-1.51-2"/><path class="cls-1" d="M660.3,485.7l1.23-.06a34.83,34.83,0,0,0,4.42,6.93c.06.23.17.69.22.92,1.59,1.66,2.16,4.08,3.87,5.61a41.17,41.17,0,0,0,3.4,4.9c2,3.09,3.74,6.37,5.61,9.55,2.08,3,4.12,6,6,9.11a79.86,79.86,0,0,1,6.55,10.44,3.9,3.9,0,0,1,.83,2.62l-1.13,0c-3.8-6.38-8.19-12.38-11.76-18.91-2.29-3.39-4.49-6.86-6.75-10.27-1.69-2.4-2.66-5.24-4.71-7.39-2-3.39-3.79-6.95-6.18-10.1a10.92,10.92,0,0,1-1.63-3.32"/></g></svg>