<svg xmlns="http://www.w3.org/2000/svg" width="79.395" height="98.406" viewBox="0 0 79.395 98.406">
  <title>Metamodernist_V2</title>
  <g>
    <g>
      <g>
        <polygon points="57.757 6.416 6.416 6.416 6.416 91.99 72.979 91.99 72.979 21.638 57.757 6.416" fill="#121315"/>
        <path d="M73.353,92.365H6.041V6.041H57.912L73.353,21.483Zm-66.562-.75H72.6V21.794l-15-15H6.791Z"/>
      </g>
      <g>
        <polygon points="63.798 0.375 12.457 0.375 12.457 85.949 79.02 85.949 79.02 15.597 63.798 0.375" fill="#5e4fff"/>
        <path d="M79.394,86.324H12.082V0H63.953L79.394,15.442Zm-66.562-.75H78.644V15.752l-15-15H12.832Z"/>
      </g>
    </g>
    <g>
      <polygon points="79.02 15.597 63.798 15.597 63.798 0.375 79.02 15.597" fill="#2b2d4c"/>
      <path d="M79.019,15.972H63.8a.375.375,0,0,1-.375-.375V.375a.375.375,0,0,1,.64-.265L79.285,15.332a.375.375,0,0,1-.266.64Zm-14.846-.75H78.114L64.173,1.281Z"/>
    </g>
  </g>
</svg>
